<!-- Generator: Adobe Illustrator 23.1.1, SVG Export Plug-In  -->
<svg version="1.1" xmlns="http://www.w3.org/2000/svg" xmlns:xlink="http://www.w3.org/1999/xlink" x="0px" y="0px"
	 width="212.883px" height="84.438px" viewBox="0 0 212.883 84.438" style="enable-background:new 0 0 212.883 84.438;"
	 xml:space="preserve">
<style type="text/css">
	.st0{fill:#C2C3C9;}
	.st1{clip-path:url(#SVGID_4_);fill:url(#SVGID_5_);}
	.st2{clip-path:url(#SVGID_6_);fill:url(#SVGID_10_);}
	.st3{clip-path:url(#SVGID_11_);fill:url(#SVGID_12_);}
	.st4{fill:#55565A;}
	.st5{fill:#87868A;}
	.st6{clip-path:url(#SVGID_13_);fill:url(#SVGID_14_);}
	.st7{clip-path:url(#SVGID_15_);fill:url(#SVGID_16_);}
	.st8{clip-path:url(#SVGID_17_);fill:url(#SVGID_18_);}
</style>
<defs>
</defs>
<g>
	<path class="st0" d="M49.008,28.806c-0.751-0.528-1.494-1.05-2.245-1.578c-1.963-1.807-3.61-3.95-4.853-6.337
		c-0.237-0.456-0.459-0.92-0.666-1.393c-0.079-0.18-0.156-0.361-0.23-0.544c-0.027-0.066-0.051-0.133-0.077-0.199
		c-0.081-0.203-0.16-0.406-0.235-0.611c-0.686-1.887-1.134-3.888-1.306-5.967c-0.646,2.125-0.994,4.38-0.994,6.716
		c0,0.056,0.003,0.111,0.002,0.168c-0.002,0.225,0.012,0.592,0.02,0.816c0.003,0.088,0.007,0.176,0.012,0.264
		c0.004,0.068,0.009,0.135,0.013,0.202c0.01,0.174,0.023,0.347,0.038,0.52c0.11,1.295,0.327,2.558,0.641,3.783
		c0.076,0.298,0.159,0.592,0.247,0.885c0.044,0.147,0.088,0.295,0.136,0.441c0.012,0.039,0.026,0.077,0.039,0.116
		c1.108,3.379,2.975,6.415,5.4,8.904c0.553,0.567,1.134,1.106,1.742,1.614c1.711,1.43,3.085,3.236,3.867,5.31
		c0.099,0.264,0.191,0.531,0.27,0.803c0.184,0.625,0.323,1.269,0.415,1.929c0.087,0.621,0.135,1.254,0.135,1.899
		c0,0.416-0.021,0.828-0.058,1.234c-0.039,0.361-0.086,0.72-0.142,1.076c-1.045,6.737-4.973,12.532-10.481,16.081
		c-3.646,2.349-7.984,3.714-12.636,3.714c-0.838,0-1.666-0.045-2.481-0.131c0.554,0.356,1.122,0.692,1.707,1.001
		c3.359,1.773,7.207,2.743,11.291,2.649c7.771-0.178,14.6-4.248,18.647-10.303c0.222-0.331,0.436-0.668,0.64-1.011
		c2.086-3.499,3.275-7.583,3.242-11.923C61.045,40.235,56.167,32.682,49.008,28.806"/>
	<path class="st0" d="M39.553,64.872c4.11-2.417,7.395-6.088,9.331-10.482c-2.463,3.481-6.517,5.755-11.106,5.755
		c-0.172,0-0.343-0.006-0.514-0.013c-0.216-0.008-0.429-0.023-0.642-0.041c-0.548-0.046-1.086-0.125-1.613-0.234
		c-0.543-0.112-1.075-0.255-1.592-0.431c-1.699-0.575-3.247-1.476-4.57-2.63c-2.492-2.174-4.185-5.24-4.578-8.702
		c-0.057-0.509-0.09-1.026-0.09-1.55c0-1.288,0.182-2.532,0.517-3.712c-0.084-0.805-0.128-1.622-0.128-2.449
		c0-4.697,1.392-9.074,3.784-12.743l-6.281,6.236c-4.022,3.403-6.639,8.223-7.035,13.477c-0.044,0.578-0.066,1.163-0.066,1.752
		c0,7.631,3.708,14.393,9.418,18.592c1.196,0.195,2.423,0.298,3.673,0.298C32.252,67.996,36.179,66.856,39.553,64.872"/>
	<path class="st0" d="M25.321,42.507l1.03-0.105l6.287-0.639l-0.84,1.737c-0.153,0.54-0.237,1.11-0.237,1.699
		c0,1.035,0.254,2.01,0.701,2.868c1.156,2.22,3.611,3.655,6.358,3.294c2.796-0.367,5.022-2.643,5.335-5.446
		c0.012-0.104,0.021-0.207,0.027-0.311c0.123-1.933-0.823-3.784-2.404-4.904c-0.606-0.429-1.19-0.887-1.751-1.371
		c-1.986-1.716-3.676-3.766-4.983-6.062c-1.142-2.005-1.99-4.2-2.49-6.523c-0.013-0.061-0.029-0.122-0.042-0.184
		c-0.094-0.456-0.174-0.918-0.241-1.383c-0.044-0.31-0.08-0.623-0.112-0.936c-4.16,4.124-6.74,9.837-6.74,16.144
		C25.221,41.1,25.256,41.807,25.321,42.507"/>
	<g>
		<defs>
			<path id="SVGID_3_" d="M37.181,18.892c0,0.057,0.003,0.111,0.002,0.168c-0.002,0.225,0.012,0.592,0.021,0.816
				c0.003,0.089,0.007,0.177,0.011,0.264c0.004,0.068,0.009,0.135,0.013,0.202c0.011,0.174,0.024,0.348,0.038,0.52
				c0.109,1.295,0.327,2.558,0.641,3.783c0.076,0.297,0.159,0.592,0.247,0.885c0.045,0.147,0.088,0.296,0.136,0.442
				c0.012,0.039,0.026,0.077,0.039,0.116c1.108,3.379,2.975,6.415,5.4,8.904c0.553,0.567,1.134,1.106,1.742,1.614
				c1.711,1.431,3.085,3.236,3.867,5.31c0.099,0.264,0.191,0.531,0.27,0.803c0.183,0.625,0.322,1.269,0.414,1.929
				c0.087,0.621,0.135,1.254,0.135,1.899c0,0.417-0.022,0.828-0.058,1.234c-0.039,0.361-0.086,0.72-0.142,1.076
				c-1.045,6.736-4.973,12.532-10.481,16.081c-3.646,2.349-7.985,3.714-12.636,3.714c-0.838,0-1.666-0.045-2.481-0.131
				c0.554,0.356,1.122,0.692,1.707,1.001c3.359,1.773,7.208,2.743,11.292,2.65c7.771-0.177,14.6-4.248,18.647-10.303
				c0.222-0.331,0.435-0.669,0.64-1.012c2.087-3.499,3.275-7.583,3.243-11.922c-0.064-8.698-4.942-16.25-12.101-20.127
				c-0.751-0.528-1.494-1.05-2.245-1.578c-1.962-1.807-3.61-3.95-4.853-6.337c-0.237-0.455-0.459-0.92-0.666-1.393
				c-0.079-0.18-0.156-0.361-0.23-0.545c-0.027-0.066-0.051-0.133-0.077-0.199c-0.081-0.202-0.161-0.405-0.235-0.611
				c-0.687-1.886-1.134-3.887-1.306-5.967C37.53,14.301,37.181,16.556,37.181,18.892"/>
		</defs>
		<clipPath id="SVGID_4_">
			<use xlink:href="#SVGID_3_"  style="overflow:visible;"/>
		</clipPath>
		
			<linearGradient id="SVGID_5_" gradientUnits="userSpaceOnUse" x1="-997.5746" y1="1792.4503" x2="-997.1458" y2="1792.4503" gradientTransform="matrix(-30.3479 76.6152 76.6152 30.3479 -167556.2031 22061.9473)">
			<stop  offset="0" style="stop-color:#F28E2A"/>
			<stop  offset="0.1033" style="stop-color:#EB8426"/>
			<stop  offset="0.4806" style="stop-color:#D5621C"/>
			<stop  offset="0.793" style="stop-color:#C84D15"/>
			<stop  offset="1" style="stop-color:#C34613"/>
		</linearGradient>
		<polygon class="st1" points="80.493,20.324 55.098,84.438 3.787,64.113 29.183,0 		"/>
	</g>
	<g>
		<defs>
			<path id="SVGID_2_" d="M20.851,33.877c-4.022,3.403-6.639,8.222-7.035,13.477c-0.044,0.578-0.066,1.163-0.066,1.752
				c0,7.631,3.708,14.393,9.418,18.592c1.196,0.195,2.423,0.298,3.673,0.298c4.189,0,8.117-1.14,11.491-3.124
				c4.109-2.416,7.395-6.087,9.331-10.482c-2.463,3.481-6.517,5.755-11.106,5.755c-0.172,0-0.343-0.006-0.514-0.012
				c-0.215-0.008-0.429-0.023-0.642-0.041c-0.547-0.046-1.085-0.125-1.612-0.234c-0.543-0.112-1.075-0.255-1.592-0.43
				c-1.7-0.575-3.248-1.476-4.571-2.63c-2.493-2.174-4.185-5.239-4.578-8.702c-0.057-0.509-0.09-1.025-0.09-1.55
				c0-1.288,0.182-2.532,0.516-3.712c-0.084-0.805-0.128-1.622-0.128-2.449c0-4.697,1.392-9.074,3.784-12.743L20.851,33.877z"/>
		</defs>
		<clipPath id="SVGID_6_">
			<use xlink:href="#SVGID_2_"  style="overflow:visible;"/>
		</clipPath>
		
			<linearGradient id="SVGID_10_" gradientUnits="userSpaceOnUse" x1="-990.3927" y1="1783.6432" x2="-989.9639" y2="1783.6432" gradientTransform="matrix(28.9618 73.6001 73.6001 -28.9618 -102567.5 124584.3594)">
			<stop  offset="0" style="stop-color:#EA8215"/>
			<stop  offset="0.2959" style="stop-color:#DC6C14"/>
			<stop  offset="0.741" style="stop-color:#C95013"/>
			<stop  offset="1" style="stop-color:#C34613"/>
		</linearGradient>
		<polygon class="st2" points="43.117,16.085 61.415,62.585 18.298,79.552 0,33.052 		"/>
	</g>
	<g>
		<defs>
			<path id="SVGID_1_" d="M24.001,40.384c0,0.716,0.035,1.424,0.099,2.123l1.031-0.105l6.288-0.639l-0.841,1.737
				c-0.153,0.54-0.237,1.11-0.237,1.699c0,1.035,0.254,2.01,0.701,2.868c1.156,2.219,3.61,3.655,6.358,3.294
				c2.797-0.367,5.022-2.643,5.336-5.446c0.012-0.104,0.021-0.207,0.027-0.31c0.123-1.933-0.823-3.785-2.404-4.905
				c-0.606-0.428-1.19-0.886-1.751-1.37c-1.986-1.717-3.676-3.766-4.983-6.062c-1.142-2.005-1.99-4.2-2.49-6.523
				c-0.014-0.062-0.029-0.122-0.042-0.184c-0.094-0.456-0.174-0.918-0.241-1.383c-0.045-0.31-0.08-0.623-0.112-0.936
				C26.581,28.364,24.001,34.078,24.001,40.384"/>
		</defs>
		<clipPath id="SVGID_11_">
			<use xlink:href="#SVGID_1_"  style="overflow:visible;"/>
		</clipPath>
		
			<linearGradient id="SVGID_12_" gradientUnits="userSpaceOnUse" x1="-977.2306" y1="1784.8158" x2="-976.8018" y2="1784.8158" gradientTransform="matrix(18.6887 39.5923 39.5923 -18.6887 -52369.9414 72081.2344)">
			<stop  offset="0" style="stop-color:#F28E2A"/>
			<stop  offset="0.1033" style="stop-color:#EB8426"/>
			<stop  offset="0.4806" style="stop-color:#D5621C"/>
			<stop  offset="0.793" style="stop-color:#C84D15"/>
			<stop  offset="1" style="stop-color:#C34613"/>
		</linearGradient>
		<polygon class="st3" points="39.444,16.951 53.493,46.714 27.442,59.011 13.393,29.248 		"/>
	</g>
	<g>
		<path class="st4" d="M67.982,58.176c-1.366,0-2.467-0.354-3.303-1.061l1.109-2.218c0.209,0.192,0.546,0.382,1.013,0.566
			c0.466,0.185,1.028,0.278,1.688,0.278c0.691,0,1.269-0.133,1.736-0.398c0.466-0.265,0.864-0.659,1.193-1.182
			c0.329-0.522,0.611-1.173,0.844-1.953c0.233-0.779,0.462-1.683,0.687-2.712l1.856-8.68h2.7l-1.856,8.68
			c-0.274,1.302-0.583,2.488-0.928,3.556c-0.346,1.069-0.804,1.981-1.374,2.736c-0.571,0.756-1.282,1.343-2.134,1.76
			C70.361,57.967,69.284,58.176,67.982,58.176z"/>
		<path class="st4" d="M85.92,40.792h2.387l2.749,17.118H88.21l-0.675-4.653h-6.148l-2.628,4.653h-2.845L85.92,40.792z
			 M87.439,51.256l-0.964-7.353l-4.195,7.353H87.439z"/>
		<path class="st4" d="M98.336,58.079c-1.238,0-2.399-0.196-3.484-0.59c-1.085-0.394-2.013-0.969-2.785-1.724l1.76-2.314
			c0.129,0.209,0.35,0.442,0.663,0.699c0.313,0.257,0.691,0.494,1.133,0.711c0.442,0.218,0.94,0.402,1.495,0.555
			c0.555,0.153,1.145,0.229,1.772,0.229c1.157,0,2.041-0.229,2.652-0.687c0.611-0.458,0.916-1.097,0.916-1.917
			c0-0.353-0.093-0.655-0.277-0.904c-0.185-0.249-0.442-0.47-0.772-0.663c-0.33-0.193-0.732-0.366-1.205-0.518
			c-0.474-0.153-1.001-0.318-1.579-0.495c-1.286-0.369-2.263-0.823-2.929-1.362c-0.667-0.539-1-1.305-1-2.302
			c0-0.965,0.193-1.824,0.579-2.58c0.385-0.756,0.904-1.398,1.555-1.929c0.651-0.531,1.406-0.932,2.266-1.205
			c0.86-0.273,1.772-0.41,2.737-0.41c1.109,0,2.097,0.185,2.965,0.555s1.592,0.827,2.17,1.374l-1.688,2.218
			c-0.097-0.177-0.274-0.366-0.531-0.566c-0.257-0.202-0.563-0.39-0.916-0.567c-0.354-0.176-0.752-0.321-1.193-0.434
			c-0.442-0.111-0.904-0.168-1.386-0.168c-1.222,0-2.126,0.261-2.713,0.783c-0.587,0.522-0.88,1.194-0.88,2.014
			c0,0.321,0.073,0.594,0.217,0.819s0.361,0.422,0.651,0.591c0.289,0.169,0.647,0.326,1.073,0.47
			c0.426,0.144,0.92,0.289,1.483,0.434c0.675,0.177,1.282,0.377,1.821,0.602c0.538,0.225,1,0.491,1.386,0.796
			c0.386,0.305,0.683,0.671,0.892,1.096c0.209,0.426,0.313,0.937,0.313,1.531c0,1.012-0.197,1.889-0.59,2.628
			c-0.394,0.74-0.924,1.35-1.592,1.832c-0.667,0.482-1.431,0.836-2.29,1.061C100.164,57.967,99.268,58.079,98.336,58.079z"/>
	</g>
	<g>
		<path class="st4" d="M120.428,50.133v6.385h-2.372V40.797h2.688c1.317,0,2.311,0.092,2.984,0.275
			c0.679,0.183,1.276,0.529,1.792,1.039c0.903,0.882,1.354,1.995,1.354,3.339c0,1.44-0.482,2.58-1.446,3.421
			c-0.964,0.843-2.264,1.263-3.9,1.263H120.428z M120.428,47.935h0.886c2.179,0,3.269-0.839,3.269-2.516
			c0-1.621-1.124-2.434-3.371-2.434h-0.784V47.935z"/>
		<path class="st4" d="M131.171,46.601v5.692c0,1.643,0.648,2.464,1.945,2.464c1.297,0,1.945-0.821,1.945-2.464v-5.692h2.291v5.743
			c0,0.795-0.098,1.48-0.295,2.057c-0.19,0.516-0.519,0.98-0.987,1.395c-0.774,0.673-1.758,1.008-2.953,1.008
			c-1.188,0-2.169-0.336-2.943-1.008c-0.475-0.414-0.811-0.879-1.008-1.395c-0.19-0.462-0.285-1.147-0.285-2.057v-5.743H131.171z"/>
		<path class="st4" d="M142.534,39.32v8.432c0.916-0.951,1.955-1.426,3.116-1.426c1.337,0,2.45,0.499,3.34,1.496
			c0.889,0.992,1.334,2.227,1.334,3.707c0,1.527-0.448,2.79-1.344,3.788c-0.889,0.991-2.013,1.487-3.371,1.487
			c-1.147,0-2.172-0.441-3.075-1.324v1.038h-2.291V39.32H142.534z M147.981,51.631c0-0.951-0.258-1.725-0.774-2.322
			c-0.523-0.611-1.178-0.916-1.965-0.916c-0.842,0-1.527,0.295-2.057,0.885c-0.523,0.584-0.784,1.344-0.784,2.281
			c0,0.964,0.258,1.734,0.774,2.311c0.516,0.591,1.195,0.885,2.037,0.885c0.794,0,1.453-0.295,1.975-0.885
			C147.717,53.274,147.981,52.527,147.981,51.631z"/>
		<path class="st4" d="M155.038,39.32v17.198h-2.291V39.32H155.038z"/>
		<path class="st4" d="M157.594,42.477c0-0.401,0.146-0.747,0.438-1.039c0.292-0.292,0.642-0.437,1.049-0.437
			c0.414,0,0.767,0.146,1.059,0.437c0.292,0.285,0.438,0.635,0.438,1.049c0,0.414-0.146,0.767-0.438,1.059
			c-0.285,0.292-0.635,0.438-1.049,0.438c-0.414,0-0.767-0.146-1.059-0.438C157.739,43.254,157.594,42.898,157.594,42.477z
			 M160.231,46.601v9.917h-2.291v-9.917H160.231z"/>
		<path class="st4" d="M170.851,47.028v3.044c-0.523-0.637-0.991-1.076-1.405-1.313c-0.407-0.244-0.886-0.366-1.435-0.366
			c-0.862,0-1.578,0.302-2.148,0.906s-0.855,1.361-0.855,2.271c0,0.93,0.275,1.693,0.825,2.29c0.556,0.598,1.266,0.896,2.128,0.896
			c0.55,0,1.035-0.118,1.456-0.356c0.407-0.231,0.886-0.679,1.436-1.344v3.024c-0.93,0.482-1.86,0.724-2.79,0.724
			c-1.534,0-2.817-0.496-3.849-1.487c-1.032-0.998-1.548-2.237-1.548-3.716c0-1.48,0.523-2.73,1.568-3.748
			c1.045-1.018,2.328-1.527,3.849-1.527C169.059,46.326,169.982,46.559,170.851,47.028z"/>
		<path class="st4" d="M172.724,42.477c0-0.401,0.146-0.747,0.438-1.039c0.292-0.292,0.642-0.437,1.049-0.437
			c0.414,0,0.767,0.146,1.059,0.437c0.292,0.285,0.438,0.635,0.438,1.049c0,0.414-0.146,0.767-0.438,1.059
			c-0.285,0.292-0.635,0.438-1.049,0.438c-0.414,0-0.767-0.146-1.059-0.438C172.87,43.254,172.724,42.898,172.724,42.477z
			 M175.362,46.601v9.917h-2.291v-9.917H175.362z"/>
		<path class="st4" d="M185.574,39.32h2.301v17.198h-2.301V55.48c-0.903,0.882-1.924,1.324-3.065,1.324
			c-1.358,0-2.485-0.496-3.38-1.487c-0.889-1.011-1.334-2.274-1.334-3.788c0-1.479,0.445-2.715,1.334-3.707
			c0.882-0.997,1.992-1.496,3.329-1.496c1.161,0,2.2,0.475,3.116,1.426V39.32z M180.137,51.529c0,0.95,0.255,1.724,0.764,2.321
			c0.523,0.605,1.181,0.906,1.975,0.906c0.848,0,1.534-0.292,2.057-0.876c0.523-0.604,0.784-1.371,0.784-2.301
			c0-0.93-0.261-1.696-0.784-2.301c-0.523-0.591-1.202-0.885-2.036-0.885c-0.788,0-1.446,0.298-1.976,0.896
			C180.398,49.893,180.137,50.64,180.137,51.529z"/>
		<path class="st4" d="M198.078,46.601h2.301v9.917h-2.301V55.48c-0.943,0.882-1.958,1.324-3.045,1.324
			c-1.371,0-2.505-0.496-3.401-1.487c-0.889-1.011-1.334-2.274-1.334-3.788c0-1.487,0.445-2.725,1.334-3.716
			c0.889-0.992,2.002-1.487,3.34-1.487c1.154,0,2.189,0.475,3.106,1.426V46.601z M192.64,51.529c0,0.95,0.255,1.724,0.764,2.321
			c0.523,0.605,1.181,0.906,1.975,0.906c0.848,0,1.534-0.292,2.057-0.876c0.523-0.604,0.784-1.371,0.784-2.301
			c0-0.93-0.261-1.696-0.784-2.301c-0.523-0.591-1.202-0.885-2.036-0.885c-0.788,0-1.446,0.298-1.976,0.896
			C192.902,49.893,192.64,50.64,192.64,51.529z"/>
		<path class="st4" d="M210.581,39.32h2.301v17.198h-2.301V55.48c-0.903,0.882-1.924,1.324-3.065,1.324
			c-1.358,0-2.485-0.496-3.38-1.487c-0.889-1.011-1.334-2.274-1.334-3.788c0-1.479,0.445-2.715,1.334-3.707
			c0.882-0.997,1.992-1.496,3.329-1.496c1.161,0,2.2,0.475,3.116,1.426V39.32z M205.144,51.529c0,0.95,0.255,1.724,0.764,2.321
			c0.523,0.605,1.181,0.906,1.975,0.906c0.848,0,1.534-0.292,2.057-0.876c0.523-0.604,0.784-1.371,0.784-2.301
			c0-0.93-0.261-1.696-0.784-2.301c-0.523-0.591-1.202-0.885-2.036-0.885c-0.788,0-1.446,0.298-1.976,0.896
			C205.405,49.893,205.144,50.64,205.144,51.529z"/>
	</g>
	<g>
		<rect x="111.674" y="36.779" class="st5" width="1.043" height="23.091"/>
	</g>
</g>
</svg>